# xmcd CD database file
#
# Track frame offsets:
#	150
#	11770
#	23351
#	34989
#	46916
#	57955
#	69268
#	80547
#	93085
#	104959
#	115410
#	127111
#	138005
#	148356
#	159036
#	169437
#
# Disc length: 2414 seconds
#
# Revision: 0
# Processed by: cddbd v1.4PL0 Copyright (c) Steve Scherf et al.
# Submitted via: CDex 1.40Beta8
#
DISCID=d9096c10
DTITLE=Patsy Cline - The One and Only
DYEAR=1900
DGENRE=Country
TTITLE0=I've Loved and Lost Again
TTITLE1=Let the Teardrops Fall
TTITLE2=Walking After Midnight
TTITLE3=Today, Tomorrrow and Forever
TTITLE4=I Can't Forget
TTITLE5=Just Out of Reach
TTITLE6=Hungry For Love
TTITLE7=Fingerprints
TTITLE8=If I Could Only Stay Asleep
TTITLE9=I Love You Honey
TTITLE10=Never No More
TTITLE11=I Don't Wanna
TTITLE12=Pick Me Up On Your Way Down
TTITLE13=Honky Tonk Merry Go Round
TTITLE14=Three Cigarettes In An Ashtray
TTITLE15=In Care of the Blues
EXTD=ID3G: 2
EXTT0=
EXTT1=
EXTT2=
EXTT3=
EXTT4=
EXTT5=
EXTT6=
EXTT7=
EXTT8=
EXTT9=
EXTT10=
EXTT11=
EXTT12=
EXTT13=
EXTT14=
EXTT15=
PLAYORDER=
